HIERARCHY
ROOT hip
{
  OFFSET 0 90.174 2.4664
  CHANNELS 6 Xposition Yposition Zposition Zrotation Xrotation Yrotation
  JOINT abdomen
  {
    OFFSET 0 -1.186 -1.5018
    CHANNELS 6 Xposition Yposition Zposition Zrotation Xrotation Yrotation
    JOINT abdomen2
    {
      OFFSET 0 9.964 0.2134
      CHANNELS 6 Xposition Yposition Zposition Zrotation Xrotation Yrotation
      JOINT chest
      {
        OFFSET 0 13.134 -3.2573
        CHANNELS 6 Xposition Yposition Zposition Zrotation Xrotation Yrotation
        JOINT neck
        {
          OFFSET 0 20.686 -1.6905
          CHANNELS 6 Xposition Yposition Zposition Zrotation Xrotation Yrotation
          JOINT head
          {
            OFFSET 0 7.238 -0.1237
            CHANNELS 6 Xposition Yposition Zposition Zrotation Xrotation Yrotation
            End Site
            {
              OFFSET 0 0 0
            }
          }
        }
        JOINT lCollar
        {
          OFFSET 1.7069 20.075 5.0056
          CHANNELS 6 Xposition Yposition Zposition Zrotation Xrotation Yrotation
          JOINT lShldr
          {
            OFFSET 13.6458 -0.047 -4.849
            CHANNELS 6 Xposition Yposition Zposition Zrotation Xrotation Yrotation
            JOINT lForeArm
            {
              OFFSET 28.3255 -0.9759 2.2888
              CHANNELS 6 Xposition Yposition Zposition Zrotation Xrotation Yrotation
              JOINT lHand
              {
                OFFSET 22.1583 -0.53 10.8316
                CHANNELS 6 Xposition Yposition Zposition Zrotation Xrotation Yrotation
                JOINT lThumb1
                {
                  OFFSET 0.786 0.112 2.5817
                  CHANNELS 6 Xposition Yposition Zposition Zrotation Xrotation Yrotation
                  JOINT lThumb2
                  {
                    OFFSET 0.3601 -0.878 4.2331
                    CHANNELS 6 Xposition Yposition Zposition Zrotation Xrotation Yrotation
                    JOINT lThumb2_End
                    {
                      OFFSET 1.8127 -1.216 2.2227
                      CHANNELS 6 Xposition Yposition Zposition Zrotation Xrotation Yrotation
                      End Site
                      {
                        OFFSET 0.0181 -0.0122 0.0222
                      }
                    }
                  }
                }
                JOINT lCarpal1
                {
                  OFFSET 0.9571 1.114 1.7695
                  CHANNELS 6 Xposition Yposition Zposition Zrotation Xrotation Yrotation
                  JOINT lIndex1
                  {
                    OFFSET 4.1246 0.487 4.1451
                    CHANNELS 6 Xposition Yposition Zposition Zrotation Xrotation Yrotation
                    JOINT lIndex2
                    {
                      OFFSET 3.4052 -1.454 2.7682
                      CHANNELS 6 Xposition Yposition Zposition Zrotation Xrotation Yrotation
                      JOINT lIndex2_End
                      {
                        OFFSET 1.4531 -1.795 1.2713
                        CHANNELS 6 Xposition Yposition Zposition Zrotation Xrotation Yrotation
                        End Site
                        {
                          OFFSET 0.0145 -0.0179 0.0127
                        }
                      }
                    }
                  }
                  JOINT lMid1
                  {
                    OFFSET 5.6954 0.21 2.1184
                    CHANNELS 6 Xposition Yposition Zposition Zrotation Xrotation Yrotation
                    JOINT lMid2
                    {
                      OFFSET 3.9766 -1.54 2.3863
                      CHANNELS 6 Xposition Yposition Zposition Zrotation Xrotation Yrotation
                      JOINT lMid2_End
                      {
                        OFFSET 1.4042 -1.926 1.125
                        CHANNELS 6 Xposition Yposition Zposition Zrotation Xrotation Yrotation
                        End Site
                        {
                          OFFSET 0.014 -0.0193 0.0113
                        }
                      }
                    }
                  }
                }
                JOINT lCarpal2
                {
                  OFFSET 2.0956 0.66 -0.3894
                  CHANNELS 6 Xposition Yposition Zposition Zrotation Xrotation Yrotation
                  JOINT lRing1
                  {
                    OFFSET 5.0395 -0.09 2.4971
                    CHANNELS 6 Xposition Yposition Zposition Zrotation Xrotation Yrotation
                    JOINT lRing2
                    {
                      OFFSET 3.7921 -1.552 1.4806
                      CHANNELS 6 Xposition Yposition Zposition Zrotation Xrotation Yrotation
                      JOINT lRing2_End
                      {
                        OFFSET 1.4655 -1.808 0.9609
                        CHANNELS 6 Xposition Yposition Zposition Zrotation Xrotation Yrotation
                        End Site
                        {
                          OFFSET 0.0147 -0.0181 0.0096
                        }
                      }
                    }
                  }
                  JOINT lPinky1
                  {
                    OFFSET 4.9141 -1.269 0.3591
                    CHANNELS 6 Xposition Yposition Zposition Zrotation Xrotation Yrotation
                    JOINT lPinky2
                    {
                      OFFSET 3.1477 -1.685 0.8462
                      CHANNELS 6 Xposition Yposition Zposition Zrotation Xrotation Yrotation
                      JOINT lPinky2_End
                      {
                        OFFSET 0.8055 -1.585 0.7955
                        CHANNELS 6 Xposition Yposition Zposition Zrotation Xrotation Yrotation
                        End Site
                        {
                          OFFSET 0.0081 -0.0158 0.008
                        }
                      }
                    }
                  }
                }
              }
            }
          }
        }
        JOINT rCollar
        {
          OFFSET -1.7069 20.075 5.0056
          CHANNELS 6 Xposition Yposition Zposition Zrotation Xrotation Yrotation
          JOINT rShldr
          {
            OFFSET -13.6458 -0.047 -4.849
            CHANNELS 6 Xposition Yposition Zposition Zrotation Xrotation Yrotation
            JOINT rForeArm
            {
              OFFSET -28.3255 -0.9759 2.2888
              CHANNELS 6 Xposition Yposition Zposition Zrotation Xrotation Yrotation
              JOINT rHand
              {
                OFFSET -22.1583 -0.53 10.8316
                CHANNELS 6 Xposition Yposition Zposition Zrotation Xrotation Yrotation
                JOINT rThumb1
                {
                  OFFSET -0.786 0.112 2.5817
                  CHANNELS 6 Xposition Yposition Zposition Zrotation Xrotation Yrotation
                  JOINT rThumb2
                  {
                    OFFSET -0.3601 -0.878 4.2331
                    CHANNELS 6 Xposition Yposition Zposition Zrotation Xrotation Yrotation
                    JOINT rThumb2_End
                    {
                      OFFSET -1.8127 -1.216 2.2227
                      CHANNELS 6 Xposition Yposition Zposition Zrotation Xrotation Yrotation
                      End Site
                      {
                        OFFSET -0.0181 -0.0122 0.0222
                      }
                    }
                  }
                }
                JOINT rCarpal1
                {
                  OFFSET -0.9571 1.114 1.7695
                  CHANNELS 6 Xposition Yposition Zposition Zrotation Xrotation Yrotation
                  JOINT rIndex1
                  {
                    OFFSET -4.1246 0.487 4.1451
                    CHANNELS 6 Xposition Yposition Zposition Zrotation Xrotation Yrotation
                    JOINT rIndex2
                    {
                      OFFSET -3.4052 -1.454 2.7682
                      CHANNELS 6 Xposition Yposition Zposition Zrotation Xrotation Yrotation
                      JOINT rIndex2_End
                      {
                        OFFSET -1.4531 -1.795 1.2713
                        CHANNELS 6 Xposition Yposition Zposition Zrotation Xrotation Yrotation
                        End Site
                        {
                          OFFSET -0.0145 -0.018 0.0127
                        }
                      }
                    }
                  }
                  JOINT rMid1
                  {
                    OFFSET -5.6954 0.21 2.1184
                    CHANNELS 6 Xposition Yposition Zposition Zrotation Xrotation Yrotation
                    JOINT rMid2
                    {
                      OFFSET -3.9766 -1.54 2.3863
                      CHANNELS 6 Xposition Yposition Zposition Zrotation Xrotation Yrotation
                      JOINT rMid2_End
                      {
                        OFFSET -1.4042 -1.926 1.125
                        CHANNELS 6 Xposition Yposition Zposition Zrotation Xrotation Yrotation
                        End Site
                        {
                          OFFSET -0.014 -0.0193 0.0113
                        }
                      }
                    }
                  }
                }
                JOINT rCarpal2
                {
                  OFFSET -2.0956 0.66 -0.3894
                  CHANNELS 6 Xposition Yposition Zposition Zrotation Xrotation Yrotation
                  JOINT rRing1
                  {
                    OFFSET -5.0395 -0.09 2.4971
                    CHANNELS 6 Xposition Yposition Zposition Zrotation Xrotation Yrotation
                    JOINT rRing2
                    {
                      OFFSET -3.7921 -1.552 1.4806
                      CHANNELS 6 Xposition Yposition Zposition Zrotation Xrotation Yrotation
                      JOINT rRing2_End
                      {
                        OFFSET -1.4655 -1.808 0.9609
                        CHANNELS 6 Xposition Yposition Zposition Zrotation Xrotation Yrotation
                        End Site
                        {
                          OFFSET -0.0147 -0.0181 0.0096
                        }
                      }
                    }
                  }
                  JOINT rPinky1
                  {
                    OFFSET -4.9141 -1.269 0.3592
                    CHANNELS 6 Xposition Yposition Zposition Zrotation Xrotation Yrotation
                    JOINT rPinky2
                    {
                      OFFSET -3.1477 -1.685 0.8462
                      CHANNELS 6 Xposition Yposition Zposition Zrotation Xrotation Yrotation
                      JOINT rPinky2_End
                      {
                        OFFSET -0.8055 -1.585 0.7955
                        CHANNELS 6 Xposition Yposition Zposition Zrotation Xrotation Yrotation
                        End Site
                        {
                          OFFSET -0.0081 -0.0158 0.008
                        }
                      }
                    }
                  }
                }
              }
            }
          }
        }
      }
    }
  }
  JOINT lThigh
  {
    OFFSET 8.367 -8.2066 0.5982
    CHANNELS 6 Xposition Yposition Zposition Zrotation Xrotation Yrotation
    JOINT lShin
    {
      OFFSET 2.1923 -43.463 -0.4932
      CHANNELS 6 Xposition Yposition Zposition Zrotation Xrotation Yrotation
      JOINT lFoot
      {
        OFFSET 0.7333 -45.8593 -2.6451
        CHANNELS 6 Xposition Yposition Zposition Zrotation Xrotation Yrotation
        End Site
        {
          OFFSET 2.6618 -4.2699 12.3931
        }
      }
    }
  }
  JOINT rThigh
  {
    OFFSET -8.367 -8.2066 0.5982
    CHANNELS 6 Xposition Yposition Zposition Zrotation Xrotation Yrotation
    JOINT rShin
    {
      OFFSET -2.1923 -43.463 -0.4931
      CHANNELS 6 Xposition Yposition Zposition Zrotation Xrotation Yrotation
      JOINT rFoot
      {
        OFFSET -0.7333 -45.8593 -2.6451
        CHANNELS 6 Xposition Yposition Zposition Zrotation Xrotation Yrotation
        End Site
        {
          OFFSET -2.6618 -4.2699 12.3931
        }
      }
    }
  }
}
MOTION
Frames:	4
Frame Time:	0.0333333
0 90.174 2.4664 0 0 -0 0 -1.186 -1.5018 0 0 -0 0 9.964 0.2134 0 0 -0 0 13.134 -3.2573 0 0 -0 0 20.686 -1.6905 0 0 -0 0 7.238 -0.1237 0 0 -0 1.7069 20.075 5.0056 0 0 -0 13.6458 -0.047 -4.849 1.66051 0.0835086 5.75766 28.3255 -0.9759 2.2888 -0.0175111 0.895433 15.7816 22.1583 -0.53 10.8316 7.95139e-016 -1.98785e-016 -0 0.786 0.112 2.5817 5.46658e-016 -3.97569e-016 -0 0.3601 -0.878 4.2331 5.96354e-016 0 -0 1.8127 -1.216 2.2227 3.97569e-016 1.98785e-016 9.54166e-015 0.9571 1.114 1.7695 1.49089e-016 -3.97569e-016 -0 4.1246 0.487 4.1451 6.4605e-016 0 3.18055e-015 3.4052 -1.454 2.7682 5.96354e-016 0 3.18055e-015 1.4531 -1.795 1.2713 8.94531e-016 -1.98785e-016 6.36111e-015 5.6954 0.21 2.1184 6.4605e-016 0 3.18055e-015 3.9766 -1.54 2.3863 5.96354e-016 0 3.18055e-015 1.4042 -1.926 1.125 8.94531e-016 -1.98785e-016 6.36111e-015 2.0956 0.66 -0.3894 1.49089e-016 -3.97569e-016 -0 5.0395 -0.09 2.4971 6.4605e-016 0 3.18055e-015 3.7921 -1.552 1.4806 5.96354e-016 0 3.18055e-015 1.4655 -1.808 0.9609 8.94531e-016 -1.98785e-016 6.36111e-015 4.9141 -1.269 0.3591 6.4605e-016 0 3.18055e-015 3.1477 -1.685 0.8462 5.96354e-016 0 3.18055e-015 0.8055 -1.585 0.7955 8.94531e-016 -1.98785e-016 6.36111e-015 -1.7069 20.075 5.0056 0 0 -0 -13.6458 -0.047 -4.849 -1.4496 0.0636048 -5.0245 -28.3255 -0.9759 2.2888 -1.74811 1.20616 -16.8394 -22.1583 -0.53 10.8316 -1.19271e-015 1.98785e-016 -3.18055e-015 -0.786 0.112 2.5817 -3.97569e-016 1.98785e-016 -3.18055e-015 -0.3601 -0.878 4.2331 -2.98177e-016 1.98785e-016 -3.18055e-015 -1.8127 -1.216 2.2227 -2.98177e-016 3.97569e-016 -0 -0.9571 1.114 1.7695 4.96962e-016 0 -6.36111e-015 -4.1246 0.487 4.1451 -9.93923e-017 3.97569e-016 -0 -3.4052 -1.454 2.7682 -8.94531e-016 5.96354e-016 -0 -1.4531 -1.795 1.2713 -3.97569e-016 3.97569e-016 -0 -5.6954 0.21 2.1184 -9.93923e-017 3.97569e-016 -0 -3.9766 -1.54 2.3863 -8.94531e-016 5.96354e-016 -0 -1.4042 -1.926 1.125 -3.97569e-016 3.97569e-016 -0 -2.0956 0.66 -0.3894 4.96962e-016 0 -6.36111e-015 -5.0395 -0.09 2.4971 -9.93923e-017 3.97569e-016 -0 -3.7921 -1.552 1.4806 -8.94531e-016 5.96354e-016 -0 -1.4655 -1.808 0.9609 -3.97569e-016 3.97569e-016 -0 -4.9141 -1.269 0.3592 -9.93923e-017 3.97569e-016 -0 -3.1477 -1.685 0.8462 -8.94531e-016 5.96354e-016 -0 -0.8055 -1.585 0.7955 -3.97569e-016 3.97569e-016 -0 8.367 -8.2066 0.5982 -4.66115 -1.03232 0.120763 2.1923 -43.463 -0.4932 0.00990601 1.55097 0.177175 0.7333 -45.8593 -2.6451 4.65196 -0.54114 -0.255042 -8.367 -8.2066 0.5982 4.66115 -1.03222 -0.120763 -2.1923 -43.463 -0.4931 -0.00990459 1.5509 -0.177176 -0.7333 -45.8593 -2.6451 -4.65196 -0.541171 0.255041 
0.795766 47.4208 4.80145 0 21.5975 -0 0 -1.186 -1.5018 -0.238492 6.85163 -0.185518 0 9.964 0.2134 -0.459439 13.704 -0.345821 5.55112e-017 13.134 -3.2573 -0.459439 13.704 -0.345821 -2.22045e-016 20.686 -1.6905 1.92625e-005 -0.000718205 1.65174e-006 1.11022e-016 7.238 -0.1237 1.05227e-007 -2.83355e-006 -1.71016e-007 1.7069 20.075 5.0056 -5.93137 0.731739 -20.964 13.6458 -0.047 -4.849 -29.6093 -17.5722 -38.2042 28.3255 -0.9759 2.2888 0.515262 -14.4046 12.2415 22.1583 -0.53 10.8316 18.1684 -4.67448 2.7994 0.786 0.112 2.5817 6.36111e-015 3.18055e-015 3.18055e-015 0.3601 -0.878 4.2331 1.0138e-014 3.18055e-015 -1.59028e-015 1.8127 -1.216 2.2227 -7.6308e-008 7.99036e-007 2.76208e-007 0.9571 1.114 1.7695 1.98785e-016 3.18055e-015 7.95139e-016 4.1246 0.487 4.1451 -5.1684e-015 -1.59028e-015 5.56597e-015 3.4052 -1.454 2.7682 -3.18055e-015 1.59028e-015 4.77083e-015 1.4531 -1.795 1.2713 -7.6308e-008 7.99036e-007 2.76208e-007 5.6954 0.21 2.1184 -5.1684e-015 -1.59028e-015 5.56597e-015 3.9766 -1.54 2.3863 -3.18055e-015 1.59028e-015 4.77083e-015 1.4042 -1.926 1.125 -7.6308e-008 7.99036e-007 2.76208e-007 2.0956 0.66 -0.3894 1.98785e-016 3.18055e-015 7.95139e-016 5.0395 -0.09 2.4971 -5.1684e-015 -1.59028e-015 5.56597e-015 3.7921 -1.552 1.4806 -3.18055e-015 1.59028e-015 4.77083e-015 1.4655 -1.808 0.9609 -7.6308e-008 7.99036e-007 2.76208e-007 4.9141 -1.269 0.3591 -5.1684e-015 -1.59028e-015 5.56597e-015 3.1477 -1.685 0.8462 -3.18055e-015 1.59028e-015 4.77083e-015 0.8055 -1.585 0.7955 -7.6308e-008 7.99036e-007 2.76208e-007 -1.7069 20.075 5.0056 5.96121 0.574073 21.2255 -13.6458 -0.047 -4.849 21.2352 -4.67169 41.5812 -28.3255 -0.9759 2.2888 -3.84271 -14.0611 -16.0367 -22.1583 -0.53 10.8316 -18.9956 -4.93495 -2.64865 -0.786 0.112 2.5817 2.38542e-015 9.54166e-015 -4.77083e-015 -0.3601 -0.878 4.2331 -3.18055e-015 9.54166e-015 -1.59028e-015 -1.8127 -1.216 2.2227 -1.59028e-015 0 -1.59028e-015 -0.9571 1.114 1.7695 2.38542e-015 6.36111e-015 -4.77083e-015 -4.1246 0.487 4.1451 -3.97569e-015 6.36111e-015 1.59028e-015 -3.4052 -1.454 2.7682 3.53113e-031 6.36111e-015 -3.18055e-015 -1.4531 -1.795 1.2713 -1.59028e-015 0 1.59028e-015 -5.6954 0.21 2.1184 -3.97569e-015 6.36111e-015 1.59028e-015 -3.9766 -1.54 2.3863 3.53113e-031 6.36111e-015 -3.18055e-015 -1.4042 -1.926 1.125 -1.59028e-015 0 1.59028e-015 -2.0956 0.66 -0.3894 2.38542e-015 6.36111e-015 -4.77083e-015 -5.0395 -0.09 2.4971 -3.97569e-015 6.36111e-015 1.59028e-015 -3.7921 -1.552 1.4806 3.53113e-031 6.36111e-015 -3.18055e-015 -1.4655 -1.808 0.9609 -1.59028e-015 0 1.59028e-015 -4.9141 -1.269 0.3592 -3.97569e-015 6.36111e-015 1.59028e-015 -3.1477 -1.685 0.8462 3.53113e-031 6.36111e-015 -3.18055e-015 -0.8055 -1.585 0.7955 -1.59028e-015 0 1.59028e-015 8.367 -8.2066 0.5982 19.5161 -55.3556 22.5694 2.1923 -43.463 -0.4932 107.543 74.6167 -114.115 0.7333 -45.8593 -2.6451 -15.223 39.8084 14.646 -8.367 -8.2066 0.5982 -19.6298 -55.2432 -22.5226 -2.1923 -43.463 -0.4931 -107.301 74.5836 113.939 -0.7333 -45.8593 -2.6451 15.4489 40.2081 -14.6135 
1.1625 27.7212 5.74567 0 30.7312 -0 0 -1.186 -1.5018 -0.303685 10.0669 -0.307486 -2.22045e-016 9.964 0.2134 -0.564907 20.1352 -0.573403 -5.55112e-017 13.134 -3.2573 -0.564906 20.1352 -0.573403 1.11022e-016 20.686 -1.6905 -1.75789e-006 -5.78423e-005 2.72553e-006 3.88578e-016 7.238 -0.1237 6.93448e-008 1.83231e-009 -8.10947e-008 1.7069 20.075 5.0056 -8.53761 0.979411 -29.8941 13.6458 -0.047 -4.849 -50.4545 -15.7699 -59.3446 28.3255 -0.9759 2.2888 0.0277837 -21.0418 10.1379 22.1583 -0.53 10.8316 26.3196 -6.33553 5.02291 0.786 0.112 2.5817 1.19359e-007 1.41902e-006 9.11533e-007 0.3601 -0.878 4.2331 -1.19336e-007 -4.55766e-007 7.09509e-007 1.8127 -1.216 2.2227 3.97569e-015 -1.59028e-015 -0 0.9571 1.114 1.7695 4.37326e-015 -3.18055e-015 -3.18055e-015 4.1246 0.487 4.1451 1.19359e-007 1.41902e-006 9.11533e-007 3.4052 -1.454 2.7682 -1.19336e-007 -4.55766e-007 7.09509e-007 1.4531 -1.795 1.2713 1.19271e-015 -3.18055e-015 3.18055e-015 5.6954 0.21 2.1184 1.19359e-007 1.41902e-006 9.11533e-007 3.9766 -1.54 2.3863 -1.19336e-007 -4.55766e-007 7.09509e-007 1.4042 -1.926 1.125 1.19271e-015 -3.18055e-015 3.18055e-015 2.0956 0.66 -0.3894 4.37326e-015 -3.18055e-015 -3.18055e-015 5.0395 -0.09 2.4971 1.19359e-007 1.41902e-006 9.11533e-007 3.7921 -1.552 1.4806 -1.19336e-007 -4.55766e-007 7.09509e-007 1.4655 -1.808 0.9609 1.19271e-015 -3.18055e-015 3.18055e-015 4.9141 -1.269 0.3591 1.19359e-007 1.41902e-006 9.11533e-007 3.1477 -1.685 0.8462 -1.19336e-007 -4.55766e-007 7.09509e-007 0.8055 -1.585 0.7955 1.19271e-015 -3.18055e-015 3.18055e-015 -1.7069 20.075 5.0056 8.61311 0.770323 30.2656 -13.6458 -0.047 -4.849 33.158 -3.95207 63.1334 -28.3255 -0.9759 2.2888 -4.5263 -20.7796 -15.3682 -22.1583 -0.53 10.8316 -27.5191 -6.65 -4.87233 -0.786 0.112 2.5817 1.70787e-007 1.44717e-006 -8.1834e-007 -0.3601 -0.878 4.2331 3.50103e-007 -8.1834e-007 -1.44717e-006 -1.8127 -1.216 2.2227 6.91678e-007 2.076e-006 -3.08385e-006 -0.9571 1.114 1.7695 -5.1684e-015 -6.36111e-015 2.5842e-015 -4.1246 0.487 4.1451 1.70787e-007 1.44717e-006 -8.1834e-007 -3.4052 -1.454 2.7682 3.50103e-007 -8.1834e-007 -1.44717e-006 -1.4531 -1.795 1.2713 6.91678e-007 2.076e-006 -3.08385e-006 -5.6954 0.21 2.1184 1.70787e-007 1.44717e-006 -8.1834e-007 -3.9766 -1.54 2.3863 3.50103e-007 -8.1834e-007 -1.44717e-006 -1.4042 -1.926 1.125 6.91678e-007 2.076e-006 -3.08385e-006 -2.0956 0.66 -0.3894 -5.1684e-015 -6.36111e-015 2.5842e-015 -5.0395 -0.09 2.4971 1.70787e-007 1.44717e-006 -8.1834e-007 -3.7921 -1.552 1.4806 3.50103e-007 -8.1834e-007 -1.44717e-006 -1.4655 -1.808 0.9609 6.91678e-007 2.076e-006 -3.08385e-006 -4.9141 -1.269 0.3592 1.70787e-007 1.44717e-006 -8.1834e-007 -3.1477 -1.685 0.8462 3.50103e-007 -8.1834e-007 -1.44717e-006 -0.8055 -1.585 0.7955 6.91678e-007 2.076e-006 -3.08385e-006 8.367 -8.2066 0.5982 67.2566 -76.1739 70.2538 2.1923 -43.463 -0.4932 148.994 34.664 -146.379 0.7333 -45.8593 -2.6451 -40.2705 55.3242 35.2897 -8.367 -8.2066 0.5982 -66.816 -76.0943 -69.5433 -2.1923 -43.463 -0.4931 -148.829 34.6915 146.312 -0.7333 -45.8593 -2.6451 40.9575 55.8382 -35.5654 
1.07867 31.9689 5.63058 0 27.4005 -0 0 -1.186 -1.5018 -0.296148 9.64777 -0.273314 0 9.964 0.2134 -0.556951 19.2967 -0.506211 -5.55112e-017 13.134 -3.2573 -0.556952 19.2967 -0.506211 1.11022e-016 20.686 -1.6905 -4.08561e-008 9.58541e-006 -1.20507e-007 -3.33067e-016 7.238 -0.1237 3.77182e-008 -1.50222e-009 2.99437e-007 1.7069 20.075 5.0056 -8.19895 0.926316 -26.7849 13.6458 -0.047 -4.849 -45.2103 -14.8875 -55.6271 28.3255 -0.9759 2.2888 0.13932 -19.2813 10.2622 22.1583 -0.53 10.8316 24.3629 -5.51453 5.097 0.786 0.112 2.5817 -2.03328e-008 -1.45958e-006 -8.5078e-007 0.3601 -0.878 4.2331 -3.97569e-015 -3.18055e-015 -4.77083e-015 1.8127 -1.216 2.2227 -7.95139e-016 1.59028e-015 -1.59028e-015 0.9571 1.114 1.7695 1.59028e-015 0 -3.18055e-015 4.1246 0.487 4.1451 -2.03328e-008 -1.45958e-006 -8.5078e-007 3.4052 -1.454 2.7682 -5.1684e-015 0 -4.77083e-015 1.4531 -1.795 1.2713 -5.56597e-015 0 -1.59028e-015 5.6954 0.21 2.1184 -2.03328e-008 -1.45958e-006 -8.5078e-007 3.9766 -1.54 2.3863 -5.1684e-015 0 -4.77083e-015 1.4042 -1.926 1.125 -5.56597e-015 0 -1.59028e-015 2.0956 0.66 -0.3894 1.59028e-015 0 -3.18055e-015 5.0395 -0.09 2.4971 -2.03328e-008 -1.45958e-006 -8.5078e-007 3.7921 -1.552 1.4806 -5.1684e-015 0 -4.77083e-015 1.4655 -1.808 0.9609 -5.56597e-015 0 -1.59028e-015 4.9141 -1.269 0.3591 -2.03328e-008 -1.45958e-006 -8.5078e-007 3.1477 -1.685 0.8462 -5.1684e-015 0 -4.77083e-015 0.8055 -1.585 0.7955 -5.56597e-015 0 -1.59028e-015 -1.7069 20.075 5.0056 8.25797 0.736472 27.1167 -13.6458 -0.047 -4.849 30.4077 -3.49536 59.4808 -28.3255 -0.9759 2.2888 -4.35202 -19.0042 -15.2398 -22.1583 -0.53 10.8316 -25.4312 -5.78429 -4.93849 -0.786 0.112 2.5817 -2.28747e-007 -1.47674e-006 7.42454e-007 -0.3601 -0.878 4.2331 1.39149e-015 -3.18055e-015 1.19271e-015 -1.8127 -1.216 2.2227 -2.28747e-007 -1.47674e-006 7.42454e-007 -0.9571 1.114 1.7695 1.19271e-015 0 3.97569e-016 -4.1246 0.487 4.1451 -2.28747e-007 -1.47674e-006 7.42454e-007 -3.4052 -1.454 2.7682 -1.59028e-015 0 -3.97569e-016 -1.4531 -1.795 1.2713 -2.28747e-007 -1.47674e-006 7.42454e-007 -5.6954 0.21 2.1184 -2.28747e-007 -1.47674e-006 7.42454e-007 -3.9766 -1.54 2.3863 -1.59028e-015 0 -3.97569e-016 -1.4042 -1.926 1.125 -2.28747e-007 -1.47674e-006 7.42454e-007 -2.0956 0.66 -0.3894 1.19271e-015 0 3.97569e-016 -5.0395 -0.09 2.4971 -2.28747e-007 -1.47674e-006 7.42454e-007 -3.7921 -1.552 1.4806 -1.59028e-015 0 -3.97569e-016 -1.4655 -1.808 0.9609 -2.28747e-007 -1.47674e-006 7.42454e-007 -4.9141 -1.269 0.3592 -2.28747e-007 -1.47674e-006 7.42454e-007 -3.1477 -1.685 0.8462 -1.59028e-015 0 -3.97569e-016 -0.8055 -1.585 0.7955 -2.28747e-007 -1.47674e-006 7.42454e-007 8.367 -8.2066 0.5982 49.0464 -70.9017 51.3731 2.1923 -43.463 -0.4932 145.362 44.2498 -146.049 0.7333 -45.8593 -2.6451 -30.7281 52.4674 27.6097 -8.367 -8.2066 0.5982 -48.9094 -70.7974 -51.0119 -2.1923 -43.463 -0.4931 -145.193 44.2624 145.959 -0.7333 -45.8593 -2.6451 31.2096 52.9526 -27.7378 
